# xmcd
#
# Track frame offsets: 
#        150
#        18152
#        39965
#        55855
#        67270
#        92958
#        115868
#        164045
#        175309
#        203904
#        224583
#        243471
#        262961
#
# Disc length: 4223 seconds
#
# Revision: 0
# Processed by: cddbd v1.5.2PL0 Copyright (c) Steve Scherf et al.
# Submitted via: ExactAudioCopy v0.99pb3
#
DISCID=bf107d0d
DTITLE=Johnny A - One November Night
DYEAR=2010
DGENRE=instrumental guitar
TTITLE0=I Had To Laugh
TTITLE1=Sing Singin'
TTITLE2=The Wind Cries Mary
TTITLE3=Tex Critter
TTITLE4=Lullabye For Nicole
TTITLE5=Two Wheel Horse
TTITLE6=Get Inside
TTITLE7=The Night Before
TTITLE8=Krea Gata
TTITLE9=Ignorance Is Bliss
TTITLE10=Wichita Lineman
TTITLE11=Memphis, Tennessee
TTITLE12=Jimi Jam
EXTD=
EXTT0=
EXTT1=
EXTT2=
EXTT3=
EXTT4=
EXTT5=
EXTT6=
EXTT7=
EXTT8=
EXTT9=
EXTT10=
EXTT11=
EXTT12=
PLAYORDER=
